<?xml version="1.0" standalone="no"?>
<!DOCTYPE svg PUBLIC "-//W3C//DTD SVG 20010904//EN"
 "http://www.w3.org/TR/2001/REC-SVG-20010904/DTD/svg10.dtd">
<svg version="1.0" xmlns="http://www.w3.org/2000/svg"
 width="1280.000000pt" height="720.000000pt" viewBox="0 0 1280.000000 720.000000"
 preserveAspectRatio="xMidYMid meet">

<g transform="translate(0.000000,720.000000) scale(0.100000,-0.100000)"
fill="#000000" stroke="none">
<path d="M0 3600 l0 -3600 6400 0 6400 0 0 3600 0 3600 -6400 0 -6400 0 0
-3600z m2740 1820 c30 -7 87 -19 125 -27 100 -22 300 -96 400 -148 440 -228
763 -613 908 -1080 110 -355 107 -754 -9 -1101 -196 -588 -665 -1029 -1264
-1191 -142 -38 -271 -53 -460 -53 -236 0 -399 26 -602 96 -93 32 -277 120
-352 168 -31 20 -94 56 -139 80 -122 64 -212 130 -312 230 -49 49 -70 72 -45
52 165 -135 303 -220 455 -279 39 -15 58 -21 160 -51 83 -24 213 -45 353 -56
292 -25 695 30 888 121 75 36 74 27 40 194 -70 346 -80 406 -65 415 7 5 15 7
17 5 4 -4 16 -62 68 -332 l27 -141 26 9 c160 60 382 220 501 362 171 201 258
387 321 679 26 122 29 158 29 307 0 231 -33 389 -122 580 -157 341 -451 608
-803 729 -301 104 -784 130 -1115 61 -395 -83 -745 -306 -935 -596 -43 -67
-41 -50 6 35 237 434 626 748 1090 883 93 27 232 54 314 63 78 8 441 -2 495
-14z m9535 -324 c55 -23 65 -56 65 -209 0 -155 -10 -222 -45 -293 -68 -139
-225 -212 -399 -184 -162 26 -265 126 -296 290 -14 76 -13 319 3 350 7 14 28
33 47 42 31 16 68 18 313 18 217 0 285 -3 312 -14z m-9895 -101 c150 -14 246
-30 327 -55 89 -27 152 -53 148 -60 -5 -8 -98 -364 -117 -448 -8 -34 -13 -42
-26 -37 -59 23 -142 47 -223 66 -127 30 -428 33 -529 5 -266 -72 -426 -191
-536 -398 -49 -95 -72 -166 -95 -292 -42 -237 -9 -489 88 -684 137 -273 428
-432 790 -432 136 0 398 44 504 85 13 5 19 -14 38 -112 13 -65 34 -174 47
-241 13 -68 22 -127 19 -131 -5 -9 -99 -41 -185 -64 -255 -67 -650 -75 -935
-18 -161 32 -405 139 -527 231 -237 179 -398 428 -469 726 -25 104 -48 306
-49 414 0 221 59 486 150 675 234 485 731 773 1355 784 39 0 140 -6 225 -14z
m634 -125 c151 -70 332 -214 444 -354 79 -98 159 -222 149 -232 -2 -3 -15 12
-28 33 -67 112 -202 257 -322 347 -67 50 -242 156 -258 156 -4 0 -14 -28 -22
-62 -33 -137 -137 -540 -142 -548 -3 -5 -31 3 -63 17 -159 70 -335 107 -517
107 -413 -1 -682 -196 -776 -564 -18 -70 -22 -115 -23 -255 -1 -189 11 -269
55 -379 16 -39 27 -71 25 -73 -7 -7 -53 83 -79 152 -81 217 -78 513 7 738 80
213 258 364 504 426 65 17 111 21 239 21 167 0 275 -16 398 -60 33 -12 68 -24
79 -27 10 -3 35 -14 55 -24 20 -10 39 -14 43 -11 6 7 16 46 115 435 26 103 49
187 50 187 2 0 32 -13 67 -30z m9290 -504 c57 -24 81 -101 52 -170 -18 -44
-52 -66 -101 -66 -50 0 -83 22 -102 68 l-15 36 -14 -33 c-25 -60 -29 -60 -265
-61 -200 0 -217 1 -236 20 -50 46 -51 141 -2 186 19 17 40 19 228 22 228 3
245 -1 273 -56 l16 -34 17 35 c16 35 63 66 98 67 10 0 32 -6 51 -14z m-8027
-201 c215 -614 108 -1268 -292 -1780 -107 -138 -279 -294 -440 -402 -303 -202
-707 -315 -1069 -300 -206 9 -410 48 -592 115 -70 26 -170 73 -119 57 11 -4
53 -17 94 -31 194 -63 359 -89 581 -89 179 0 255 8 405 41 561 125 1023 484
1284 997 226 443 268 969 116 1432 -48 144 -48 146 -19 85 15 -30 37 -86 51
-125z m1035 131 c199 -64 332 -208 374 -408 19 -89 14 -288 -10 -361 -77 -241
-287 -387 -555 -387 -283 1 -481 137 -567 390 -24 70 -27 307 -5 385 55 197
211 345 411 390 81 18 284 13 352 -9z m1835 10 c119 -25 244 -92 277 -147 23
-40 21 -133 -4 -174 -50 -80 -124 -90 -240 -33 -169 84 -315 49 -355 -85 -19
-62 -21 -196 -4 -262 23 -93 115 -154 214 -142 22 2 86 23 143 46 115 46 129
48 179 25 52 -25 83 -78 83 -142 0 -73 -21 -111 -80 -150 -240 -157 -590 -131
-779 59 -175 174 -214 506 -89 741 112 211 384 321 655 264z m-3517 -56 c6
-11 8 -20 6 -20 -3 0 -10 9 -16 20 -6 11 -8 20 -6 20 3 0 10 -9 16 -20z m6632
-66 c46 -30 66 -66 74 -138 l7 -56 39 0 c87 0 148 -51 156 -129 l4 -50 44 48
c50 55 153 113 232 130 180 38 376 -12 477 -121 159 -169 150 -462 -17 -613
-182 -164 -514 -154 -684 20 l-54 56 0 -41 c0 -54 -21 -93 -67 -122 -34 -20
-50 -23 -143 -23 -176 1 -271 50 -331 171 -31 63 -32 70 -37 218 l-5 152 -43
10 -44 10 5 -33 c3 -18 7 -48 10 -66 3 -18 1 -68 -5 -112 -27 -210 -160 -343
-353 -353 -63 -3 -95 0 -139 15 l-56 19 -4 -102 c-4 -119 -16 -145 -88 -181
-85 -44 -202 -20 -252 50 -23 32 -23 37 -28 417 l-5 385 -189 -370 c-103 -203
-200 -390 -215 -415 -50 -84 -148 -113 -238 -69 -55 26 -85 69 -91 128 -4 41
2 59 47 146 28 55 51 106 51 114 0 12 -203 417 -215 430 -2 2 -23 -4 -47 -13
-24 -9 -74 -20 -112 -26 -110 -15 -110 -14 -116 -238 -5 -177 -6 -189 -29
-221 -69 -97 -252 -92 -318 8 -23 33 -23 39 -23 351 0 312 0 318 23 351 58 89
205 105 289 32 15 -13 22 -12 64 13 38 23 62 29 128 32 73 4 85 2 116 -20 l36
-24 43 23 c111 58 216 12 277 -122 12 -27 38 -84 57 -125 l35 -74 66 139 c73
154 85 170 135 191 73 31 155 12 207 -49 l32 -35 22 30 c57 77 207 91 277 26
l22 -20 58 28 c52 26 68 29 158 29 90 0 106 -3 159 -29 32 -16 76 -46 97 -67
25 -25 39 -34 39 -24 0 52 75 114 136 115 18 0 22 8 27 54 7 67 27 108 68 137
62 44 165 45 231 3z m1743 -92 c47 -24 85 -63 111 -112 24 -47 25 -152 1 -199
-17 -33 -16 -36 4 -78 28 -58 21 -108 -21 -145 l-30 -28 -224 0 c-236 0 -264
4 -327 49 -74 52 -104 126 -103 261 0 117 16 174 59 217 43 43 85 45 126 4 16
-16 29 -37 29 -46 0 -10 11 -4 31 20 58 65 115 86 224 81 56 -2 93 -10 120
-24z m-5705 -354 c108 -55 108 -210 0 -265 -42 -22 -56 -23 -245 -23 -225 0
-250 6 -292 69 -49 73 -21 184 57 223 30 15 65 18 235 18 188 0 204 -1 245
-22z m6004 -252 c57 -24 81 -101 52 -170 -18 -44 -52 -66 -101 -66 -50 0 -83
22 -102 68 l-15 36 -14 -34 c-8 -19 -20 -37 -26 -41 -8 -5 -6 -12 5 -23 8 -9
18 -29 22 -46 5 -21 12 -30 27 -30 34 0 85 -29 97 -56 20 -45 14 -109 -15
-143 -21 -25 -33 -31 -65 -31 -35 0 -39 -3 -39 -25 0 -40 -26 -92 -49 -100
-21 -7 -21 -7 3 -36 34 -40 60 -163 53 -246 -10 -108 -64 -177 -156 -203 -20
-5 -102 -10 -183 -10 -147 0 -148 0 -178 28 -41 36 -49 88 -22 140 16 32 18
41 7 56 -36 49 -24 172 22 227 l25 29 -26 21 c-70 55 -51 231 33 302 37 31
108 47 207 47 51 0 76 4 78 13 3 6 7 24 10 40 l6 27 -158 0 c-143 0 -160 2
-179 20 -50 46 -51 141 -2 186 19 17 40 19 228 22 228 3 245 -1 273 -56 l16
-34 17 35 c16 35 63 66 98 67 10 0 32 -6 51 -14z m-3989 -630 c39 -16 55 -42
55 -86 0 -31 -37 -80 -60 -80 -6 0 2 -12 19 -26 l31 -26 0 -215 c0 -233 -6
-262 -57 -303 -31 -24 -125 -44 -170 -35 -52 9 -87 48 -79 88 3 17 13 38 21
47 13 14 10 15 -26 12 -24 -3 -48 2 -62 11 -20 13 -27 13 -48 1 -32 -18 -133
-18 -167 0 -74 39 -92 89 -92 258 0 123 1 130 24 153 47 47 137 39 166 -14 5
-11 10 -70 10 -131 0 -93 3 -112 16 -117 32 -12 44 24 44 134 0 96 2 106 24
128 33 33 69 40 114 23 56 -21 62 -42 62 -224 0 -148 -2 -163 -21 -188 l-20
-26 30 0 31 0 0 185 c0 194 7 234 46 249 14 5 12 9 -11 27 -57 45 -53 123 8
153 40 19 68 20 112 2z m2430 0 c39 -16 55 -42 55 -86 0 -31 -37 -80 -60 -80
-6 0 2 -12 19 -26 l31 -26 0 -111 c1 -87 3 -108 12 -92 6 11 22 32 36 47 21
23 23 28 10 33 -23 9 -41 60 -34 90 19 77 249 112 337 52 68 -46 74 -63 77
-222 3 -143 3 -145 -22 -170 -19 -19 -35 -25 -69 -25 -23 0 -48 5 -54 11 -8 8
-21 8 -48 -1 -53 -17 -135 -8 -174 19 -17 12 -40 39 -51 59 l-19 37 -1 -38 c0
-55 -35 -87 -95 -87 -38 0 -52 5 -76 29 l-29 29 0 157 c0 163 9 205 47 219 15
6 13 11 -15 32 -27 22 -32 32 -32 68 0 46 15 67 60 85 35 14 56 13 95 -3z
m-4480 -25 c21 -12 50 -56 95 -140 36 -66 67 -121 70 -121 3 0 32 50 65 112
75 139 88 156 129 164 38 7 89 -15 106 -45 6 -12 10 -118 10 -271 l0 -251 -25
-24 c-34 -35 -96 -35 -130 0 -22 21 -25 33 -25 95 0 75 -10 88 -30 40 -18 -42
-65 -80 -102 -80 -30 0 -73 35 -110 90 -17 25 -17 24 -17 -46 -1 -63 -4 -74
-27 -98 -35 -35 -92 -36 -131 -2 l-28 24 0 255 c0 241 1 256 20 277 38 43 84
50 130 21z m3107 8 c99 -21 167 -70 211 -153 18 -34 22 -57 22 -141 0 -93 -2
-104 -31 -155 -33 -59 -97 -111 -162 -131 -57 -17 -283 -24 -327 -9 -59 20
-65 45 -65 293 0 240 6 272 54 293 39 17 224 18 298 3z m-2282 -178 c45 -23
88 -84 99 -141 l9 -45 1 63 c1 83 22 128 67 142 38 13 87 6 104 -15 10 -12 15
-12 35 1 13 8 47 18 77 20 71 7 133 -24 162 -81 18 -35 21 -58 21 -183 l0
-144 -28 -24 c-39 -34 -108 -34 -142 1 -24 23 -25 31 -25 133 0 123 -11 153
-45 128 -17 -12 -21 -30 -25 -131 -5 -108 -7 -118 -29 -136 -34 -28 -102 -26
-137 4 -25 22 -28 32 -34 118 -4 52 -8 88 -8 80 -1 -8 -9 -22 -17 -31 -14 -15
-14 -18 0 -30 15 -13 20 -65 9 -95 -21 -55 -208 -85 -294 -47 -90 39 -132 106
-132 210 -1 107 66 198 163 222 46 12 127 3 169 -19z m1440 14 c44 -23 50 -43
50 -165 0 -93 3 -112 16 -117 32 -12 44 24 44 134 0 96 2 106 24 128 33 33 69
40 114 23 56 -21 62 -42 62 -226 l0 -164 -29 -29 c-33 -33 -92 -40 -126 -15
-17 12 -23 12 -47 0 -35 -18 -131 -18 -166 0 -37 19 -67 55 -81 95 -14 43 -15
276 0 302 11 22 61 48 92 49 10 0 31 -7 47 -15z m1245 1 c18 -8 38 -23 44 -34
6 -12 11 -68 11 -127 0 -85 3 -107 15 -111 35 -14 45 14 45 120 0 115 9 138
65 156 49 16 100 -2 121 -42 12 -24 15 -60 12 -190 l-3 -160 -28 -24 c-31 -26
-103 -34 -125 -12 -9 9 -21 9 -50 0 -96 -29 -189 -4 -228 61 -16 26 -20 56
-22 168 -4 152 1 173 51 194 41 18 50 18 92 1z m503 -10 c13 -13 18 -13 38 0
12 9 46 18 76 20 71 7 133 -24 162 -81 18 -34 21 -59 21 -178 l0 -139 -28 -24
c-39 -34 -108 -34 -142 1 -23 22 -25 32 -25 113 0 140 -10 168 -50 142 -11 -7
-16 -37 -20 -125 -5 -109 -6 -117 -30 -135 -37 -28 -102 -26 -137 4 l-28 24
-3 149 c-4 176 5 218 51 239 37 16 94 11 115 -10z m-9348 -151 c13 -14 19 -25
14 -25 -8 1 -50 50 -41 50 2 0 14 -11 27 -25z m11369 -249 c49 -45 49 -139 -1
-186 -21 -19 -35 -20 -338 -20 -300 0 -317 1 -337 20 -59 54 -47 172 20 200
12 5 160 8 328 7 284 -2 308 -3 328 -21z"/>
<path d="M11645 5055 c-24 -23 -25 -28 -25 -178 0 -171 12 -230 61 -308 31
-49 78 -87 144 -116 29 -13 67 -17 140 -17 127 0 183 22 255 101 74 80 90 143
90 340 0 150 -1 155 -25 178 l-24 25 -296 0 -296 0 -24 -25z m523 -238 c-5
-95 -24 -138 -76 -173 -62 -42 -192 -42 -254 -1 -52 36 -71 79 -76 174 l-5 83
208 0 208 0 -5 -83z"/>
<path d="M11792 4799 c9 -117 51 -154 178 -154 119 0 159 37 168 155 l5 70
-178 0 -178 0 5 -71z"/>
<path d="M12214 4338 c-49 -23 -60 -113 -19 -153 53 -54 145 -16 145 59 0 83
-59 127 -126 94z"/>
<path d="M11635 4315 c-46 -45 -27 -128 34 -145 47 -13 335 -13 382 0 61 17
80 100 34 145 -24 25 -25 25 -225 25 -200 0 -201 0 -225 -25z"/>
<path d="M4985 4260 c-178 -36 -310 -148 -372 -316 -37 -101 -43 -259 -15
-372 45 -177 153 -296 321 -354 56 -19 87 -23 196 -23 110 0 140 4 198 23 217
76 337 257 337 512 0 52 -7 123 -15 158 -45 190 -185 328 -374 368 -71 15
-211 17 -276 4z m253 -232 c58 -30 107 -99 123 -175 6 -34 9 -101 7 -160 -4
-89 -9 -111 -34 -160 -36 -70 -87 -109 -165 -125 -121 -25 -229 31 -280 145
-20 45 -23 68 -24 177 0 114 2 130 26 180 50 106 129 154 242 146 35 -3 77
-14 105 -28z"/>
<path d="M5047 3995 c-83 -29 -125 -102 -134 -229 -9 -137 33 -253 106 -291
115 -59 248 -1 285 125 21 69 21 191 0 260 -35 117 -146 175 -257 135z"/>
<path d="M6875 4260 c-110 -23 -190 -66 -261 -142 -68 -72 -100 -130 -124
-223 -39 -151 -18 -341 50 -459 33 -59 128 -154 179 -181 117 -60 295 -81 425
-51 88 21 190 71 221 108 44 52 29 145 -26 174 -38 19 -37 19 -147 -28 -87
-38 -105 -42 -177 -42 -177 -1 -257 94 -258 309 0 114 10 161 52 226 43 68
101 94 211 94 79 0 92 -4 176 -43 102 -47 104 -48 143 -28 55 29 70 122 26
174 -31 37 -132 87 -216 107 -68 16 -208 18 -274 5z"/>
<path d="M10095 4155 c-64 -23 -85 -64 -85 -165 l0 -48 -57 -4 c-70 -6 -103
-37 -103 -98 0 -61 33 -92 103 -98 l57 -4 0 -144 c0 -236 28 -307 143 -364 84
-41 202 -52 272 -26 52 20 65 39 65 95 0 55 -34 81 -104 81 -30 0 -61 6 -74
16 -21 15 -22 21 -22 180 l0 164 60 0 c66 0 113 18 130 49 18 35 12 88 -14
118 -21 25 -32 28 -99 31 l-74 4 -5 69 c-6 71 -22 108 -61 133 -35 23 -88 27
-132 11z"/>
<path d="M7572 3933 c-60 -29 -62 -41 -62 -363 0 -245 2 -296 16 -321 28 -55
121 -76 190 -43 57 27 64 52 64 234 0 176 8 211 54 248 15 11 48 24 74 27 135
18 173 39 187 102 8 41 -10 98 -38 118 -59 41 -213 0 -261 -71 l-23 -34 -12
40 c-21 72 -111 102 -189 63z"/>
<path d="M8182 3934 c-19 -10 -40 -27 -47 -38 -34 -53 -32 -61 110 -347 l137
-274 -56 -113 c-31 -62 -56 -123 -56 -137 0 -15 14 -41 33 -61 28 -31 41 -37
83 -41 92 -8 88 -13 321 449 114 227 212 427 217 444 26 90 -103 168 -189 115
-25 -15 -47 -53 -115 -204 -47 -103 -87 -187 -90 -187 -3 0 -42 81 -88 179
-46 99 -94 189 -108 201 -31 30 -107 37 -152 14z"/>
<path d="M9073 3935 c-63 -27 -63 -29 -63 -500 0 -384 2 -430 17 -456 32 -54
117 -74 188 -45 55 23 65 55 65 215 l0 140 24 -24 c52 -51 104 -70 201 -70
107 0 160 20 225 85 146 146 138 448 -15 589 -116 106 -309 108 -412 5 -14
-14 -26 -24 -27 -22 -1 2 -7 15 -14 31 -25 58 -116 84 -189 52z m413 -201 c51
-24 76 -80 76 -166 0 -113 -51 -178 -140 -178 -91 0 -141 64 -142 179 0 144
93 218 206 165z"/>
<path d="M9363 3676 c-26 -23 -28 -29 -28 -106 0 -77 2 -83 28 -106 31 -26 62
-30 101 -13 35 16 49 58 44 135 -4 58 -8 70 -32 90 -35 31 -77 31 -113 0z"/>
<path d="M10811 3934 c-155 -42 -247 -142 -273 -299 -27 -159 51 -328 181
-395 93 -47 230 -63 343 -39 209 45 331 235 289 451 -38 191 -189 299 -414
297 -40 0 -96 -7 -126 -15z m230 -220 c41 -41 58 -123 41 -201 -17 -80 -52
-115 -124 -120 -102 -8 -152 50 -152 177 0 127 50 185 152 177 43 -3 59 -10
83 -33z"/>
<path d="M10900 3687 c-37 -19 -56 -95 -41 -163 14 -61 26 -74 80 -81 33 -5
44 -1 64 19 46 46 47 169 1 215 -26 26 -65 30 -104 10z"/>
<path d="M10479 3718 c-14 -11 -49 -22 -82 -25 l-57 -6 0 -128 0 -129 53 0
c28 0 65 -7 81 -15 36 -19 40 -16 25 21 -16 38 -16 231 0 268 15 36 12 38 -20
14z"/>
<path d="M11771 4077 c-50 -16 -117 -84 -130 -132 -20 -75 -7 -150 36 -197 15
-17 14 -18 -15 -18 -18 0 -42 10 -59 24 -25 21 -28 31 -28 83 0 32 7 86 14
120 14 58 14 64 -4 83 -27 30 -68 26 -98 -10 -34 -40 -51 -126 -44 -227 7
-112 41 -176 117 -215 l52 -28 228 0 229 0 20 26 c31 40 28 90 -9 124 -20 19
-27 31 -19 35 21 14 49 90 49 135 0 88 -64 173 -149 199 -47 14 -144 13 -190
-2z m186 -191 c14 -17 23 -40 23 -61 0 -53 -35 -87 -96 -92 -29 -2 -59 1 -74
9 -60 32 -64 123 -7 159 46 29 122 22 154 -15z"/>
<path d="M11810 3870 c-45 -45 -10 -110 58 -110 53 0 82 23 82 65 0 24 -7 39
-22 49 -32 23 -94 20 -118 -4z"/>
<path d="M11600 3834 c0 -16 5 -36 10 -44 6 -10 7 -2 3 25 -7 49 -13 58 -13
19z"/>
<path d="M5838 3694 c-15 -8 -32 -23 -38 -34 -15 -27 -12 -92 5 -116 27 -40
61 -45 269 -42 l198 3 29 33 c46 51 35 128 -22 158 -41 21 -402 20 -441 -2z"/>
<path d="M12214 3458 c-49 -23 -60 -113 -19 -153 53 -54 145 -16 145 59 0 83
-59 127 -126 94z"/>
<path d="M11635 3435 c-46 -45 -27 -128 34 -145 47 -13 335 -13 382 0 61 17
80 100 34 145 -24 25 -25 25 -225 25 -200 0 -201 0 -225 -25z"/>
<path d="M11986 3228 c-9 -12 -16 -35 -16 -50 l0 -28 -101 0 c-123 0 -171 -13
-209 -56 -52 -60 -68 -179 -29 -228 41 -53 109 -22 109 49 0 49 14 55 126 55
l101 0 5 -52 c6 -55 24 -78 65 -78 38 0 63 34 63 85 l0 45 39 0 c59 0 96 35
96 90 0 55 -37 90 -96 90 -38 0 -39 1 -39 33 0 42 -26 67 -68 67 -21 0 -36 -7
-46 -22z"/>
<path d="M11777 2943 c-3 -5 -8 -27 -12 -49 -6 -41 -6 -42 28 -48 47 -9 86
-41 108 -90 l19 -41 0 38 c0 30 5 41 29 55 26 16 28 20 15 36 -7 10 -16 38
-20 62 l-6 44 -79 0 c-43 0 -80 -3 -82 -7z"/>
<path d="M11690 2798 c-47 -32 -71 -68 -77 -116 -8 -57 3 -105 32 -136 13 -14
20 -26 15 -26 -5 0 -18 -10 -30 -22 -26 -28 -26 -78 1 -112 l20 -26 157 0
c168 0 214 11 255 58 47 52 60 169 32 277 -19 70 -47 105 -87 105 -33 0 -72
-35 -65 -58 49 -165 47 -205 -11 -210 l-32 -3 0 60 c0 150 -47 231 -133 231
-29 0 -55 -7 -77 -22z m110 -163 c7 -8 15 -35 18 -60 5 -45 4 -45 -26 -45 -32
0 -72 38 -72 67 0 46 53 71 80 38z"/>
<path d="M11750 2603 c0 -20 18 -43 33 -43 4 0 7 12 5 27 -4 32 -38 46 -38 16z"/>
<path d="M11925 2656 c3 -27 5 -59 5 -72 0 -13 5 -24 10 -24 15 0 11 69 -6
110 l-14 35 5 -49z"/>
<path d="M8202 2817 c-28 -30 -28 -58 1 -85 48 -45 137 -17 137 43 0 61 -93
90 -138 42z"/>
<path d="M7732 2644 c-21 -14 -22 -22 -22 -152 0 -150 10 -182 66 -219 40 -26
125 -23 163 5 24 17 32 19 38 8 13 -22 52 -38 76 -30 55 16 57 24 57 205 0
162 -1 168 -22 183 -12 9 -34 16 -48 16 -14 0 -36 -7 -48 -16 -20 -14 -22 -23
-22 -117 0 -114 -11 -147 -54 -162 -24 -8 -31 -6 -47 14 -16 20 -19 40 -19
137 0 105 -1 114 -22 128 -12 9 -34 16 -48 16 -14 0 -36 -7 -48 -16z"/>
<path d="M8214 2646 c-17 -13 -19 -31 -24 -218 l-5 -203 -37 -6 c-46 -7 -68
-25 -68 -55 0 -81 191 -67 237 18 15 28 18 63 21 228 3 187 3 197 -18 223 -24
31 -73 37 -106 13z"/>
<path d="M10635 2815 c-14 -13 -25 -31 -25 -40 0 -28 46 -65 82 -65 49 0 78
24 78 65 0 64 -86 89 -135 40z"/>
<path d="M10640 2640 c-18 -18 -20 -33 -20 -178 0 -147 1 -160 20 -177 26 -24
85 -25 108 -2 14 15 17 41 20 170 3 143 2 154 -18 180 -27 34 -80 37 -110 7z"/>
<path d="M10918 2646 c-26 -7 -54 -18 -62 -26 -20 -16 -20 -50 -2 -75 13 -19
16 -19 90 -1 71 17 79 17 101 2 44 -29 32 -46 -31 -46 -123 0 -189 -38 -189
-109 0 -73 61 -124 147 -125 36 0 54 6 73 24 21 19 25 21 30 7 10 -25 57 -40
88 -28 37 14 47 47 47 144 -1 144 -25 203 -97 233 -40 17 -132 17 -195 0z
m148 -233 c-12 -49 -69 -71 -96 -38 -25 30 12 63 74 64 26 1 28 -1 22 -26z"/>
<path d="M10997 2404 c-4 -4 -4 -10 -1 -15 6 -10 34 0 34 12 0 10 -24 12 -33
3z"/>
<path d="M6161 2794 c-20 -25 -21 -39 -21 -261 l0 -234 26 -25 c19 -20 31 -24
52 -19 49 12 51 20 54 153 l3 127 49 -83 c59 -101 69 -112 106 -112 33 0 57
27 111 128 l34 63 5 -120 c6 -134 15 -154 70 -154 63 0 65 7 65 277 0 226 -1
245 -19 265 -21 23 -56 27 -86 11 -10 -6 -54 -75 -97 -155 -43 -80 -80 -145
-83 -145 -3 0 -40 66 -83 145 -43 80 -87 150 -97 155 -33 18 -67 11 -89 -16z"/>
<path d="M9071 2801 c-20 -20 -21 -31 -21 -256 0 -295 -12 -275 168 -275 198
0 283 36 336 141 22 44 26 66 26 133 0 93 -18 143 -71 195 -62 62 -106 75
-271 79 -138 4 -147 3 -167 -17z m286 -110 c55 -25 73 -62 73 -146 0 -40 -6
-78 -16 -96 -21 -41 -84 -69 -156 -69 l-58 0 0 165 0 165 58 0 c34 0 74 -8 99
-19z"/>
<path d="M9230 2545 l0 -135 40 0 c22 0 56 6 74 14 62 26 85 143 40 211 -18
28 -62 45 -115 45 l-39 0 0 -135z"/>
<path d="M6894 2641 c-54 -25 -92 -76 -106 -142 -31 -153 96 -270 260 -239
102 19 140 56 107 106 -18 28 -20 28 -107 3 -57 -16 -97 -5 -115 31 l-12 25
113 3 c133 3 142 8 132 76 -19 125 -152 192 -272 137z m123 -79 c6 -4 16 -20
22 -35 l11 -27 -65 0 c-36 0 -65 4 -65 9 0 4 9 20 21 35 20 25 52 33 76 18z"/>
<path d="M6978 2533 c7 -3 16 -2 19 1 4 3 -2 6 -13 5 -11 0 -14 -3 -6 -6z"/>
<path d="M7250 2640 c-18 -18 -20 -33 -20 -183 0 -153 1 -165 20 -182 26 -24
85 -25 108 -2 14 14 18 40 20 130 3 84 8 116 19 130 19 20 66 23 81 5 6 -7 12
-66 14 -130 2 -95 6 -121 20 -135 23 -23 82 -22 108 2 18 16 20 30 20 144 0
147 -16 198 -71 226 -42 22 -125 16 -165 -12 l-29 -21 -18 24 c-23 31 -78 33
-107 4z"/>
<path d="M6988 2393 c12 -2 30 -2 40 0 9 3 -1 5 -23 4 -22 0 -30 -2 -17 -4z"/>
<path d="M8432 2644 c-21 -14 -22 -22 -22 -152 0 -150 10 -182 66 -219 40 -26
125 -23 163 5 24 17 32 19 38 8 13 -22 52 -38 76 -30 55 16 57 24 57 205 0
162 -1 168 -22 183 -12 9 -34 16 -48 16 -14 0 -36 -7 -48 -16 -20 -14 -22 -23
-22 -117 0 -114 -11 -147 -54 -162 -24 -8 -31 -6 -47 14 -16 20 -19 40 -19
137 0 105 -1 114 -22 128 -12 9 -34 16 -48 16 -14 0 -36 -7 -48 -16z"/>
<path d="M9682 2644 c-21 -14 -22 -22 -22 -146 0 -147 10 -182 63 -213 46 -27
127 -26 166 2 l29 22 14 -21 c19 -28 78 -30 108 -3 19 17 20 30 20 177 0 145
-2 160 -20 178 -25 25 -81 26 -102 3 -12 -13 -17 -47 -20 -125 -4 -119 -17
-148 -69 -148 -41 0 -49 24 -49 149 0 102 -2 111 -22 125 -12 9 -34 16 -48 16
-14 0 -36 -7 -48 -16z"/>
<path d="M10160 2640 c-18 -18 -20 -33 -20 -178 0 -147 1 -160 20 -177 27 -24
85 -25 108 -2 13 14 18 41 22 132 3 63 10 118 15 124 20 20 62 23 79 6 13 -13
16 -38 16 -125 0 -90 3 -111 19 -131 26 -33 86 -32 113 1 18 22 20 37 16 150
-4 141 -17 179 -70 206 -41 21 -129 15 -166 -13 l-27 -20 -18 23 c-23 31 -78
33 -107 4z"/>
<path d="M11635 2235 c-27 -27 -32 -68 -13 -110 19 -41 63 -46 365 -43 l275 3
24 28 c32 38 32 90 -1 122 l-24 25 -301 0 -301 0 -24 -25z"/>
</g>
</svg>
