<?xml version="1.0" standalone="no"?>
<!DOCTYPE svg PUBLIC "-//W3C//DTD SVG 20010904//EN"
 "http://www.w3.org/TR/2001/REC-SVG-20010904/DTD/svg10.dtd">
<svg version="1.0" xmlns="http://www.w3.org/2000/svg"
 width="640.000000pt" height="160.000000pt" viewBox="0 0 640.000000 160.000000"
 preserveAspectRatio="xMidYMid meet">

<g transform="translate(0.000000,160.000000) scale(0.100000,-0.100000)"
fill="#000000" stroke="none">
<path d="M145 1131 c-11 -5 -29 -19 -40 -31 -19 -21 -20 -36 -20 -296 l0 -274
28 -27 27 -28 3055 0 3055 0 27 28 28 27 0 275 0 275 -28 27 -27 28 -3043 2
c-1673 1 -3051 -2 -3062 -6z m944 -77 c76 -22 144 -92 167 -170 50 -174 -70
-336 -251 -336 -73 0 -127 21 -179 70 -117 112 -103 312 28 400 80 54 144 63
235 36z m417 -55 c68 -39 128 -68 134 -64 5 3 10 28 10 54 0 26 5 52 12 59 13
13 106 16 126 4 9 -7 12 -63 10 -248 l-3 -239 -70 0 -70 0 -5 130 -5 130 -107
3 c-83 2 -108 0 -108 -10 0 -7 27 -59 59 -116 79 -139 78 -144 -48 -140 l-96
3 -3 244 c-2 245 -1 260 32 261 5 0 64 -32 132 -71z m781 -167 c97 -168 132
-238 128 -253 -6 -18 -14 -19 -113 -17 l-107 3 -3 145 c-1 79 -7 149 -11 153
-11 11 -181 -83 -181 -99 0 -6 20 -45 44 -88 65 -113 61 -117 -83 -114 -112 3
-116 4 -119 26 -2 14 40 97 119 235 67 116 129 220 138 230 33 39 50 19 188
-221z m1565 221 c9 -10 70 -113 137 -230 81 -139 121 -220 119 -235 -3 -22 -6
-23 -108 -23 l-105 0 -3 145 c-1 79 -7 149 -11 153 -6 6 -40 -8 -83 -31 -121
-67 -115 -55 -63 -145 26 -45 45 -88 43 -100 -3 -21 -8 -22 -120 -25 -125 -3
-125 -3 -119 44 2 17 252 448 265 456 18 12 32 9 48 -9z m888 -67 c25 -44 50
-81 57 -83 6 -2 30 29 52 70 47 85 62 101 88 93 27 -9 286 -461 278 -486 -6
-18 -16 -20 -90 -20 l-83 0 -79 135 c-51 89 -83 134 -93 132 -12 -2 -15 -26
-18 -132 -2 -106 -5 -132 -19 -142 -26 -20 -46 -1 -108 104 -82 137 -115 184
-126 178 -5 -4 -9 -61 -9 -128 0 -67 -4 -128 -8 -135 -6 -9 -34 -12 -103 -10
-86 3 -94 5 -97 24 -2 17 223 425 261 472 23 28 51 8 97 -72z m-4070 59 c8
-10 11 -52 8 -140 -4 -158 -1 -155 -148 -155 -69 0 -110 -4 -118 -12 -14 -14
-16 -114 -2 -123 6 -3 59 20 120 52 128 68 143 67 148 -12 2 -27 1 -59 -3 -72
l-5 -23 -219 0 c-190 0 -220 2 -225 16 -3 9 -6 67 -6 129 0 158 1 158 157 165
l118 5 3 54 c2 30 -2 59 -8 65 -7 7 -43 -6 -124 -49 -98 -52 -116 -58 -130
-46 -20 16 -23 130 -4 149 19 19 422 17 438 -3z m2388 3 c19 -19 16 -133 -4
-149 -14 -11 -25 -9 -78 21 -141 79 -135 76 -146 60 -11 -16 -14 -248 -4 -274
5 -13 25 -16 114 -16 125 0 133 -5 128 -77 l-3 -48 -132 -3 c-117 -2 -137 0
-177 19 -88 41 -138 123 -138 224 0 120 74 218 187 246 52 12 240 10 253 -3z
m220 0 c9 -9 12 -69 12 -209 0 -116 4 -200 10 -204 5 -3 45 15 89 41 107 62
116 59 116 -36 l0 -75 -180 0 -180 0 -3 239 c-2 185 1 241 10 248 20 12 113 9
126 -4z m1056 -4 c9 -8 16 -19 16 -23 0 -14 -25 -38 -61 -60 -65 -38 -65 -45
-7 -82 29 -18 56 -38 60 -44 13 -18 9 -240 -5 -259 -10 -14 -26 -16 -97 -14
l-85 3 -3 234 c-2 164 1 238 9 247 17 21 152 19 173 -2z m1305 2 c7 -9 11 -39
9 -77 -4 -91 -15 -94 -127 -30 -50 29 -98 50 -106 47 -10 -3 -15 -19 -15 -45
0 -71 0 -71 120 -71 80 0 111 -4 119 -14 7 -9 11 -39 9 -77 -4 -91 -15 -94
-128 -30 -51 29 -99 50 -107 47 -10 -4 -13 -20 -11 -58 l3 -53 112 -5 c62 -3
117 -10 123 -16 6 -6 10 -31 8 -55 l-3 -44 -195 0 -195 0 -3 234 c-2 164 1
238 9 247 17 21 361 20 378 0z m496 0 c89 -38 86 -173 -5 -210 -22 -9 -40 -20
-40 -25 0 -5 25 -53 56 -106 32 -56 54 -105 52 -118 -3 -21 -9 -22 -92 -25
-65 -2 -92 1 -98 10 -4 7 -8 106 -8 221 0 151 -3 207 -12 207 -15 0 -178 -92
-178 -101 0 -3 39 -72 86 -152 110 -188 110 -189 -29 -185 l-102 3 -3 234 c-2
164 1 238 9 247 17 20 316 20 364 0z"/>
<path d="M907 973 c-12 -11 -8 -331 4 -338 13 -9 289 155 289 171 0 11 -262
174 -279 174 -4 0 -11 -3 -14 -7z"/>
</g>
</svg>
